<?xml version="1.0" standalone="yes"?>
<svg xmlns="http://www.w3.org/2000/svg" width="317" height="159">
<path style="fill:#eaf1f3; stroke:none;" d="M0 0L0 159L317 159L317 0L0 0z"/>
<path style="fill:#a6c04c; stroke:none;" d="M113 31L114 32L113 31M156.667 32.3333L157.333 32.6667L156.667 32.3333M224 32L225 33L224 32M227 32L228 33L227 32M146 37L149 36L146 37z"/>
<path style="fill:#7fa5b6; stroke:none;" d="M149 35L149 36L152 36L149 35M147 36L147 41L148 41L147 36z"/>
<path style="fill:#df3681; stroke:none;" d="M147 37C148.909 41.7407 152.22 40.6907 153 36L147 37z"/>
<path style="fill:#a6c04c; stroke:none;" d="M260 36L261 37L260 36M153.333 37.6667L153.667 38.3333L153.333 37.6667M106 38L107 39L106 38z"/>
<path style="fill:#7fa5b6; stroke:none;" d="M153 39L154 40L153 39z"/>
<path style="fill:#a6c04c; stroke:none;" d="M132 48L126 48L127 61L128 61L129 53L130 53L131 75L134 75L134 64L136 64L137 75L138 75L139 52L140 52L142 60L145 48L145 47L142 45L141 45L136 47C140.147 38.8246 128.627 38.8922 132 48z"/>
<path style="fill:#7fa5b6; stroke:none;" d="M152 40L153 41L152 40z"/>
<path style="fill:#a6c04c; stroke:none;" d="M309 40L310 41L309 40M149 41L150 42L149 41M144 42L145 43L144 42z"/>
<path style="fill:#7fa5b6; stroke:none;" d="M145 42L148 44L148 43L145 42z"/>
<path style="fill:#a6c04c; stroke:none;" d="M146 42L147 43L146 42M154 42L154 43L157 43L154 42z"/>
<path style="fill:#7fa5b6; stroke:none;" d="M142 43L142 45L144 45L144 43L142 43z"/>
<path style="fill:#df3681; stroke:none;" d="M144 43L142 47C148.997 50.8581 145.002 62.2415 147 69L149 57L150 57L154 68L154 47L155 47L158 52C157.379 41.8757 152.27 43.9238 144 43z"/>
<path style="fill:#7fa5b6; stroke:none;" d="M156 43L157 46L158 46L158 43L156 43z"/>
<path style="fill:#a6c04c; stroke:none;" d="M167.361 44.0463C164.104 46.3675 168.595 50.7205 171.353 48.2037C174.16 45.6436 170.173 42.0428 167.361 44.0463M182 43L184 50L177 52C165.548 49.2658 156.815 49.8405 161 64L162 64L162 56L164 56L164 79L166 79L168 67L169 67L169 79L172 79L173 56L175 56L175 64C178.159 61.7772 178.372 58.6894 178 55L179 71L182 71L182 67L184 67L184 79L188 57L189 57L188 65C194.348 60.1676 190.642 52.466 184 51C188.804 47.7132 187.649 43.901 182 43z"/>
<path style="fill:#7fa5b6; stroke:none;" d="M205 43L205 44L208 44L205 43z"/>
<path style="fill:#a6c04c; stroke:none;" d="M97 44L94 48L94 49L96 53L92 54L94 67L95 67L95 62L96 62L99 81L100 81L100 69L101 69L105 78L102 56L105 57L104 64L106 64L104 50L100 51L100 45L97 46L97 44z"/>
<path style="fill:#df3681; stroke:none;" d="M204 51C197.302 49.4397 198.165 56.1211 197 61L200 61L200 78L203 68L204 68L202 78L205 79L207 64L210 66C211.406 60.5671 213.797 54.0637 207 52C210.888 44.4726 202.637 42.2064 204 51z"/>
<path style="fill:#7fa5b6; stroke:none;" d="M97.6667 45.3333L98.3333 45.6667L97.6667 45.3333M119 45C109.646 47.8408 120.335 55.4068 119 45M95.3333 46.6667L95.6667 47.3333L95.3333 46.6667M99.3333 47.6667L99.6667 48.3333L99.3333 47.6667M154 47L155 48L154 47z"/>
<path style="fill:#a6c04c; stroke:none;" d="M209 47L210 48L209 47z"/>
<path style="fill:#7fa5b6; stroke:none;" d="M143 48L143 54L144 54L143 48M145 48L145 52L146 52L145 48z"/>
<path style="fill:#a6c04c; stroke:none;" d="M154 48L155 49L154 48M157 48L158 49L157 48z"/>
<path style="fill:#7fa5b6; stroke:none;" d="M200 48L201 49L200 48M203 48L203 51L204 51L203 48z"/>
<path style="fill:#a6c04c; stroke:none;" d="M199 49L200 50L199 49z"/>
<path style="fill:#7fa5b6; stroke:none;" d="M207 50L208 51L207 50z"/>
<path style="fill:#a6c04c; stroke:none;" d="M222 50L223 51L222 50z"/>
<path style="fill:#7fa5b6; stroke:none;" d="M103 51L104 52L103 51M112 69L113 69L113 60L114 60L116 85C120.661 81.6353 118.042 75.1101 118 70L119 70L120 81L126 82L125 79L122 80L121 57L122 57L123 64L124 64L123 51C111.697 54.8239 111.11 57.7176 112 69z"/>
<path style="fill:#a6c04c; stroke:none;" d="M198 51L199 52L198 51z"/>
<path style="fill:#7fa5b6; stroke:none;" d="M222 51L223 52L222 51z"/>
<path style="fill:#a6c04c; stroke:none;" d="M145 52L145 56L146 56L145 52z"/>
<path style="fill:#7fa5b6; stroke:none;" d="M156 52L156 55L158 54L158 53L156 52z"/>
<path style="fill:#a6c04c; stroke:none;" d="M157 52L158 53L157 52z"/>
<path style="fill:#6161b5; stroke:none;" d="M222.333 52.6667L222.667 53.3333L222.333 52.6667z"/>
<path style="fill:#a6c04c; stroke:none;" d="M211 53L212 54L211 53z"/>
<path style="fill:#7fa5b6; stroke:none;" d="M87 61C78.3947 72.065 83.6496 98.1733 91 109L92 109L91 86L92 86L93 89L92 60L88 61L88 54C83.9472 55.3458 83.3502 58.6261 87 61M95 54L96 55L95 54z"/>
<path style="fill:#a6c04c; stroke:none;" d="M113 54L114 55L113 54M157 54L158 55L157 54M221 54L222 55L221 54z"/>
<path style="fill:#df3681; stroke:none;" d="M222.333 54.6667L222.667 55.3333L222.333 54.6667z"/>
<path style="fill:#7fa5b6; stroke:none;" d="M221 55L220 57L221 55z"/>
<path style="fill:#a6c04c; stroke:none;" d="M63 56L64 57L63 56z"/>
<path style="fill:#7fa5b6; stroke:none;" d="M145 56L146 57L145 56z"/>
<path style="fill:#a6c04c; stroke:none;" d="M221 56L221 58L223 58L221 56z"/>
<path style="fill:#6161b5; stroke:none;" d="M222 56L223 57L222 56z"/>
<path style="fill:#7fa5b6; stroke:none;" d="M104 57L105 58L104 57z"/>
<path style="fill:#a6c04c; stroke:none;" d="M145 57L145 66L146 66L145 57M149 57L150 58L149 57z"/>
<path style="fill:#7fa5b6; stroke:none;" d="M200 57L201 58L200 57z"/>
<path style="fill:#df3681; stroke:none;" d="M220 57L221 58L220 57z"/>
<path style="fill:#a6c04c; stroke:none;" d="M150 58L151 59L150 58z"/>
<path style="fill:#eaf1f3; stroke:none;" d="M200.333 58.6667L200.667 59.3333L200.333 58.6667z"/>
<path style="fill:#6161b5; stroke:none;" d="M220.333 58.6667L220.667 59.3333L220.333 58.6667z"/>
<path style="fill:#7fa5b6; stroke:none;" d="M221.333 58.6667L221.667 59.3333L221.333 58.6667z"/>
<path style="fill:#eaf1f3; stroke:none;" d="M94 59L94 62L95 62L94 59z"/>
<path style="fill:#a6c04c; stroke:none;" d="M197 59L198 60L197 59z"/>
<path style="fill:#eaf1f3; stroke:none;" d="M208.333 59.6667L208.667 60.3333L208.333 59.6667z"/>
<path style="fill:#a6c04c; stroke:none;" d="M211 59L212 60L211 59M231 59L230 61L231 59M75 60L74 64L75 64L75 60z"/>
<path style="fill:#7fa5b6; stroke:none;" d="M200 60L201 61L200 60z"/>
<path style="fill:#a6c04c; stroke:none;" d="M219 60L220 61L219 60z"/>
<path style="fill:#df3681; stroke:none;" d="M220 60L221 68L222 60L220 60z"/>
<path style="fill:#a6c04c; stroke:none;" d="M222 60L223 61L222 60z"/>
<path style="fill:#7fa5b6; stroke:none;" d="M231 60L230 66C224.933 66.7557 222.018 90.8107 222 96L223 96L228 75C231.103 72.5557 232.274 63.6717 231 60z"/>
<path style="fill:#6161b5; stroke:none;" d="M75 61L75 67L76 67L75 61z"/>
<path style="fill:#a6c04c; stroke:none;" d="M197 61L198 62L197 61M199 61L200 62L199 61z"/>
<path style="fill:#7fa5b6; stroke:none;" d="M219 61L219 65L220 65L219 61M222 61L222 65L223 65L222 61z"/>
<path style="fill:#a6c04c; stroke:none;" d="M198 62L199 63L198 62z"/>
<path style="fill:#7fa5b6; stroke:none;" d="M76.3333 64.6667L76.6667 65.3333L76.3333 64.6667z"/>
<path style="fill:#a6c04c; stroke:none;" d="M108 64C107.474 76.2739 108.128 91.4729 113 103L114 103C113.065 91.1659 114.258 74.4462 108 64M111 64L112 65L111 64M121 64L122 65L121 64M123 64L124 65L123 64M207 64L207 66L209 64L207 64z"/>
<path style="fill:#7fa5b6; stroke:none;" d="M210 64L211 65L210 64z"/>
<path style="fill:#a6c04c; stroke:none;" d="M210 65L211 66L210 65M222 65L223 66L222 65M229 65L230 66L229 65z"/>
<path style="fill:#df3681; stroke:none;" d="M76.3333 66.6667L76.6667 67.3333L76.3333 66.6667z"/>
<path style="fill:#a6c04c; stroke:none;" d="M77 66L78 67L77 66z"/>
<path style="fill:#eaf1f3; stroke:none;" d="M91 66L91 69L92 69L91 66z"/>
<path style="fill:#a6c04c; stroke:none;" d="M218 66L218 69L219 69L218 66z"/>
<path style="fill:#7fa5b6; stroke:none;" d="M219 66L220 71L221 71L219 66M75 67L76 68L75 67z"/>
<path style="fill:#6161b5; stroke:none;" d="M77.3333 67.6667L77.6667 68.3333L77.3333 67.6667z"/>
<path style="fill:#7fa5b6; stroke:none;" d="M148.333 67.6667L148.667 68.3333L148.333 67.6667M151 67L153 69L151 67z"/>
<path style="fill:#eaf1f3; stroke:none;" d="M182 67L182 72L184 72L184 67L182 67z"/>
<path style="fill:#a6c04c; stroke:none;" d="M199 67L200 68L199 67z"/>
<path style="fill:#7fa5b6; stroke:none;" d="M221 67L222 68L221 67z"/>
<path style="fill:#a6c04c; stroke:none;" d="M227 67L228 68L227 67z"/>
<path style="fill:#7fa5b6; stroke:none;" d="M76 68L77 69L76 68z"/>
<path style="fill:#a6c04c; stroke:none;" d="M78.3333 68.6667L78.6667 69.3333L78.3333 68.6667z"/>
<path style="fill:#7fa5b6; stroke:none;" d="M103.333 68.6667L103.667 69.3333L103.333 68.6667M146 68L147 69L146 68z"/>
<path style="fill:#a6c04c; stroke:none;" d="M151 68L152 69L151 68M153 68L154 69L153 68z"/>
<path style="fill:#eaf1f3; stroke:none;" d="M203 68L202 76L203 76L203 68z"/>
<path style="fill:#6161b5; stroke:none;" d="M220 68L221 69L220 68z"/>
<path style="fill:#a6c04c; stroke:none;" d="M221 68L221 71L222 71L221 68z"/>
<path style="fill:#df3681; stroke:none;" d="M76 69L78 84L80 84C79.9596 79.1209 80.165 72.1672 76 69z"/>
<path style="fill:#6161b5; stroke:none;" d="M219 69L221 72L219 69z"/>
<path style="fill:#a6c04c; stroke:none;" d="M230.333 69.6667L230.667 70.3333L230.333 69.6667z"/>
<path style="fill:#6161b5; stroke:none;" d="M78.3333 70.6667L78.6667 71.3333L78.3333 70.6667z"/>
<path style="fill:#a6c04c; stroke:none;" d="M93.3333 70.6667L93.6667 71.3333L93.3333 70.6667z"/>
<path style="fill:#7fa5b6; stroke:none;" d="M203 70L204 71L203 70z"/>
<path style="fill:#a6c04c; stroke:none;" d="M75 71L75 75L76 75L75 71z"/>
<path style="fill:#7fa5b6; stroke:none;" d="M178 71L179 72L178 71z"/>
<path style="fill:#6161b5; stroke:none;" d="M179.065 71.8009C174.34 72.4007 175.227 79.1267 179.957 78.0293C184.202 77.0442 183.544 71.2322 179.065 71.8009z"/>
<path style="fill:#7fa5b6; stroke:none;" d="M181 71L182 72L181 71M206 71L207 72L206 71z"/>
<path style="fill:#a6c04c; stroke:none;" d="M218 71L219 72L218 71z"/>
<path style="fill:#df3681; stroke:none;" d="M219 71L218 74L219 71z"/>
<path style="fill:#a6c04c; stroke:none;" d="M226 71L227 72L226 71z"/>
<path style="fill:#7fa5b6; stroke:none;" d="M218 72L219 73L218 72M220 72L219 75L220 72z"/>
<path style="fill:#a6c04c; stroke:none;" d="M79.3333 73.6667L79.6667 74.3333L79.3333 73.6667z"/>
<path style="fill:#7fa5b6; stroke:none;" d="M175 73L176 74L175 73M183 73L184 74L183 73z"/>
<path style="fill:#a6c04c; stroke:none;" d="M122 74L122 80L125 79L128 82L129 76L122 74M198 74L198 77L199 77L198 74z"/>
<path style="fill:#6161b5; stroke:none;" d="M218.333 74.6667L218.667 75.3333L218.333 74.6667z"/>
<path style="fill:#a6c04c; stroke:none;" d="M220 74L221 75L220 74z"/>
<path style="fill:#7fa5b6; stroke:none;" d="M79.3333 75.6667L79.6667 76.3333L79.3333 75.6667z"/>
<path style="fill:#a6c04c; stroke:none;" d="M115 75L116 76L115 75z"/>
<path style="fill:#7fa5b6; stroke:none;" d="M124 75L124 76L128 77L128 76L124 75z"/>
<path style="fill:#a6c04c; stroke:none;" d="M219.333 75.6667L219.667 76.3333L219.333 75.6667M225 75L225 78L226 78L225 75M228 75L228 77L230 75L228 75M201 76L202 77L201 76z"/>
<path style="fill:#7fa5b6; stroke:none;" d="M202 76L203 77L202 76z"/>
<path style="fill:#a6c04c; stroke:none;" d="M217 76L218 77L217 76z"/>
<path style="fill:#7fa5b6; stroke:none;" d="M218 76L217 88L218 88L218 76M76 77L77 78L76 77z"/>
<path style="fill:#a6c04c; stroke:none;" d="M80 77L81 78L80 77z"/>
<path style="fill:#eaf1f3; stroke:none;" d="M84.3333 77.6667L84.6667 78.3333L84.3333 77.6667z"/>
<path style="fill:#7fa5b6; stroke:none;" d="M102 77L104 79L104 77L102 77z"/>
<path style="fill:#a6c04c; stroke:none;" d="M118 77L119 78L118 77z"/>
<path style="fill:#7fa5b6; stroke:none;" d="M128 77L128 81L129 81L128 77M175 77L176 78L175 77M182 77L183 78L182 77M194 86L187 90L189 108C177.013 102.272 174.022 119.076 164 118L163 118C162.474 122.716 138.803 140.389 159 136C160.393 141.855 158.252 147.219 159.152 152.941C159.979 158.197 172.996 159.071 175.976 155.397C178.569 152.199 176.376 146.743 180.314 144.18C182.936 142.473 186.213 143.344 189 144L188 155C203.229 154.99 196.868 146.59 201.738 136.148C203.696 131.952 208.646 134.532 210.953 131.4C215.024 125.874 197.737 115.335 194 113L194 112L200 96L197 88L198 88L201 93L202 83L197 84L200 77C194.575 77.847 192.916 80.7311 194 86z"/>
<path style="fill:#a6c04c; stroke:none;" d="M210 87C202.413 89.2827 205.252 95.1232 206 101L205 101L203 98L203 102L205 115L206 108L207 108L208 112L212 94L215 95L217 82L213 84L214 77C209.719 79.4996 208.984 82.2549 210 87z"/>
<path style="fill:#7fa5b6; stroke:none;" d="M16 78L13 102L16 100L23 118L22 118L21 115L20 115L24 125L25 125L24 115L35 133L36 132L32 114C35.6741 115.425 40.6308 116.666 42.8356 120.214C49.1298 130.341 42.4165 140.231 58 143L57 131C69.2045 132.945 62.7782 146.836 76 148L74 128L82 129C79.9113 118.614 68.0476 109.603 61.169 102.001C58.9108 99.5049 55.9279 94.6608 51.9992 95.037C45.8746 95.6237 39.9652 106.5 35 110C30.6145 99.8227 23.8941 85.7867 16 78z"/>
<path style="fill:#a6c04c; stroke:none;" d="M76 78L77 79L76 78M102 78L103 79L102 78z"/>
<path style="fill:#7fa5b6; stroke:none;" d="M176 78L176 79L185 80L185 79L176 78z"/>
<path style="fill:#eaf1f3; stroke:none;" d="M181 78L181 79L184 79L181 78z"/>
<path style="fill:#a6c04c; stroke:none;" d="M205 78L206 79L205 78z"/>
<path style="fill:#eaf1f3; stroke:none;" d="M86 79L87 80L86 79z"/>
<path style="fill:#a6c04c; stroke:none;" d="M120 79L121 80L120 79z"/>
<path style="fill:#6161b5; stroke:none;" d="M168 92L172 85L173 85L172 109C177.389 107.211 175.864 100.772 177 96L178 96L178 108C184.776 104.263 182.717 90.9106 184 84L185 84L185 93C189.029 89.9256 188.304 83.4164 187 79C174.393 81.3404 171.194 78.5895 168 92z"/>
<path style="fill:#7fa5b6; stroke:none;" d="M187 79L188 80L187 79z"/>
<path style="fill:#6161b5; stroke:none;" d="M198 79L199 80L198 79z"/>
<path style="fill:#a6c04c; stroke:none;" d="M203 79L204 80L203 79M228 79L229 80L228 79M18 80L19 81L18 80z"/>
<path style="fill:#6161b5; stroke:none;" d="M77 80L78 81L77 80z"/>
<path style="fill:#a6c04c; stroke:none;" d="M141 80L142 81L141 80z"/>
<path style="fill:#7fa5b6; stroke:none;" d="M143 87L143 88C137.2 88 128.896 89.2523 133.5 97.6667C134.829 100.096 136.621 99.0635 137 102L138 102L138 94L139 94L141 98C139.666 103.602 137.577 114.418 144 117L144 116L142 115L144 105L145 105L146 117L150 117L150 95L151 95L151 101L152 101L151 92L154 92L146 88C152.74 77.4414 133.464 81.2903 143 87M170 80L171 81L170 80M188 80L188 83L189 83L188 80z"/>
<path style="fill:#6161b5; stroke:none;" d="M194 80L195 81L194 80M197.333 80.6667L197.667 81.3333L197.333 80.6667z"/>
<path style="fill:#a6c04c; stroke:none;" d="M26 81L27 82L26 81z"/>
<path style="fill:#7fa5b6; stroke:none;" d="M77 81L78 82L77 81z"/>
<path style="fill:#a6c04c; stroke:none;" d="M122.667 81.3333L123.333 81.6667L122.667 81.3333z"/>
<path style="fill:#7fa5b6; stroke:none;" d="M169 81L170 82L169 81z"/>
<path style="fill:#a6c04c; stroke:none;" d="M77 82L78 83L77 82M80 82L81 83L80 82z"/>
<path style="fill:#7fa5b6; stroke:none;" d="M99 82L100 83L99 82z"/>
<path style="fill:#a6c04c; stroke:none;" d="M100 82L101 83L100 82M116 82L117 83L116 82M119 82L115 84L118 88L117 97L119 88L120 88C120 94.5938 118.612 108.132 123 113L125 104L123 100L124 100C124.586 102.93 126.502 102.488 127 100L128 100C127.379 105.02 126.396 109.772 131 113L129 104L129 103C132.382 100.03 130.763 93.6891 129 90L132 96L133 96L135 84L132 85L119 82z"/>
<path style="fill:#6161b5; stroke:none;" d="M141 82L142 83L141 82z"/>
<path style="fill:#a6c04c; stroke:none;" d="M218.333 82.6667L218.667 83.3333L218.333 82.6667z"/>
<path style="fill:#7fa5b6; stroke:none;" d="M80 83L81 84L80 83z"/>
<path style="fill:#eaf1f3; stroke:none;" d="M90.3333 83.6667L90.6667 84.3333L90.3333 83.6667z"/>
<path style="fill:#df3681; stroke:none;" d="M98 83L100 90L96 89L102 110C111.494 105.72 111.703 95.3983 102 91C104.815 86.795 102.717 83.7701 98 83z"/>
<path style="fill:#7fa5b6; stroke:none;" d="M120 83L120 84L123 84L120 83z"/>
<path style="fill:#6161b5; stroke:none;" d="M147.333 83.6667L147.667 84.3333L147.333 83.6667z"/>
<path style="fill:#a6c04c; stroke:none;" d="M148.333 83.6667L148.667 84.3333L148.333 83.6667z"/>
<path style="fill:#7fa5b6; stroke:none;" d="M161 83L162 84L161 83z"/>
<path style="fill:#df3681; stroke:none;" d="M163 91L163 92C155.146 92.0061 146.535 99.8694 156 106L156 98L157 98C157 104.364 153.891 119.592 162 121L162 109L163 109L164 119C170.272 116.479 168.996 103.965 169 98L170 98L171 106C178.694 98.4656 172.548 92.0066 164 92L164 91L167 84C161.125 83.2303 155.122 88.5028 163 91z"/>
<path style="fill:#a6c04c; stroke:none;" d="M164 83L165 84L164 83M168 83L169 84L168 83z"/>
<path style="fill:#6161b5; stroke:none;" d="M194 83L195 84L194 83z"/>
<path style="fill:#a6c04c; stroke:none;" d="M226 83L227 84L226 83M14 84L15 85L14 84M20 84L21 85L20 84z"/>
<path style="fill:#7fa5b6; stroke:none;" d="M78 84L79 85L78 84z"/>
<path style="fill:#6161b5; stroke:none;" d="M79 84L79 86L81 86L81 84L79 84z"/>
<path style="fill:#7fa5b6; stroke:none;" d="M125 84L125 85L128 85L125 84M132.667 84.3333L133.333 84.6667L132.667 84.3333M168 84L168 91L169 91L168 84M184 84L185 85L184 84z"/>
<path style="fill:#6161b5; stroke:none;" d="M199 84L197 85L197 86L199 84z"/>
<path style="fill:#eaf1f3; stroke:none;" d="M212 84L213 85L212 84z"/>
<path style="fill:#a6c04c; stroke:none;" d="M78 85L79 86L78 85M83 85L84 86L83 85z"/>
<path style="fill:#7fa5b6; stroke:none;" d="M129.333 85.6667L129.667 86.3333L129.333 85.6667z"/>
<path style="fill:#6161b5; stroke:none;" d="M141 85L141 86L144 87L141 85M145 85L145 87L147 85L145 85z"/>
<path style="fill:#7fa5b6; stroke:none;" d="M172 85L171 90L172 90L172 85z"/>
<path style="fill:#eaf1f3; stroke:none;" d="M184 85L182 106L189 108L190 99L189 99L187 101L188 92L185 94L184 85z"/>
<path style="fill:#a6c04c; stroke:none;" d="M223 85L224 86L223 85z"/>
<path style="fill:#7fa5b6; stroke:none;" d="M292 85C285.157 94.6286 273.121 107.285 271 119L276 117L272 136C283.243 133.418 280.308 123.093 288 117L286 128L294.799 107.015L299.678 95.9961L294 85L292 85M79 86L79 88L81 88L79 86z"/>
<path style="fill:#df3681; stroke:none;" d="M80 86L81 87L80 86z"/>
<path style="fill:#a6c04c; stroke:none;" d="M81 86L81 89L82 89L81 86M98 86L99 87L98 86z"/>
<path style="fill:#7fa5b6; stroke:none;" d="M125.667 86.3333L126.333 86.6667L125.667 86.3333M134 86L135 87L134 86z"/>
<path style="fill:#eaf1f3; stroke:none;" d="M172 86L172 92L173 92L172 86z"/>
<path style="fill:#7fa5b6; stroke:none;" d="M183 86L183 90L184 90L183 86z"/>
<path style="fill:#6161b5; stroke:none;" d="M195 86L196 87L195 86z"/>
<path style="fill:#7fa5b6; stroke:none;" d="M118 87L119 88L118 87z"/>
<path style="fill:#a6c04c; stroke:none;" d="M167.333 87.6667L167.667 88.3333L167.333 87.6667M290 87L291 88L290 87M79 88L80 89L79 88z"/>
<path style="fill:#df3681; stroke:none;" d="M80 88L82 91L80 88z"/>
<path style="fill:#a6c04c; stroke:none;" d="M96 88L97 89L96 88M99.3333 88.6667L99.6667 89.3333L99.3333 88.6667z"/>
<path style="fill:#7fa5b6; stroke:none;" d="M116 88L116 93L117 93L118 88L116 88M121 88L121 91L122 91L121 88M132 88L133 89L132 88M158 88L159 89L158 88M187 88L188 89L187 88z"/>
<path style="fill:#6161b5; stroke:none;" d="M197 88L197 92L198 92L197 88z"/>
<path style="fill:#7fa5b6; stroke:none;" d="M81 89L82 90L81 89z"/>
<path style="fill:#eaf1f3; stroke:none;" d="M167 89L165 92C167.251 91.5268 168.118 91.1397 167 89z"/>
<path style="fill:#a6c04c; stroke:none;" d="M224 89L225 90L224 89M296 89L297 90L296 89z"/>
<path style="fill:#6161b5; stroke:none;" d="M80 90L81 94L82 94L80 90z"/>
<path style="fill:#a6c04c; stroke:none;" d="M102 90L103 91L102 90z"/>
<path style="fill:#7fa5b6; stroke:none;" d="M129 90L129 92L131 92L131 90L129 90z"/>
<path style="fill:#eaf1f3; stroke:none;" d="M198 90L198 94L199 94L198 90M213 90L213 93L214 93L213 90z"/>
<path style="fill:#a6c04c; stroke:none;" d="M297 90L298 91L297 90z"/>
<path style="fill:#7fa5b6; stroke:none;" d="M80 91L81 92L80 91z"/>
<path style="fill:#a6c04c; stroke:none;" d="M82.3333 91.6667L82.6667 92.3333L82.3333 91.6667M154 91L155 92L154 91M161.667 91.3333L162.333 91.6667L161.667 91.3333M164 91L165 92L164 91z"/>
<path style="fill:#7fa5b6; stroke:none;" d="M171 91L172 92L171 91M184 91L185 92L184 91z"/>
<path style="fill:#6161b5; stroke:none;" d="M189 91L190 92L189 91M191 91L192 92L191 91M194.333 91.6667L194.667 92.3333L194.333 91.6667z"/>
<path style="fill:#a6c04c; stroke:none;" d="M80 92L81 93L80 92z"/>
<path style="fill:#7fa5b6; stroke:none;" d="M105 92L106 93L105 92z"/>
<path style="fill:#6161b5; stroke:none;" d="M151 92L151 94L153 94L151 92M153 92L154 93L153 92z"/>
<path style="fill:#a6c04c; stroke:none;" d="M223 92L224 93L223 92z"/>
<path style="fill:#7fa5b6; stroke:none;" d="M82 93L81 97L82 97L82 93z"/>
<path style="fill:#a6c04c; stroke:none;" d="M107 93L108 94L107 93z"/>
<path style="fill:#7fa5b6; stroke:none;" d="M185 93L186 94L185 93z"/>
<path style="fill:#eaf1f3; stroke:none;" d="M190 93L190 97L191 97L190 93z"/>
<path style="fill:#6161b5; stroke:none;" d="M199.333 93.6667L199.667 94.3333L199.333 93.6667z"/>
<path style="fill:#a6c04c; stroke:none;" d="M200 93L201 94L200 93M299 93L300 94L299 93M53 94L54 95L53 94M96 94L97 95L96 94z"/>
<path style="fill:#7fa5b6; stroke:none;" d="M130 94L130 97L131 97L130 94z"/>
<path style="fill:#6161b5; stroke:none;" d="M188 94L189 95L188 94M196.333 94.6667L196.667 95.3333L196.333 94.6667z"/>
<path style="fill:#7fa5b6; stroke:none;" d="M98 95L99 96L98 95M108 95L109 96L108 95M118 95L119 96L118 95z"/>
<path style="fill:#6161b5; stroke:none;" d="M140 95L141 96L140 95M152 95L153 96L152 95z"/>
<path style="fill:#7fa5b6; stroke:none;" d="M213 95L214 96L213 95z"/>
<path style="fill:#a6c04c; stroke:none;" d="M12 96L13 97L12 96M27 96L28 97L27 96M82 96L83 97L82 96z"/>
<path style="fill:#6161b5; stroke:none;" d="M97.3333 96.6667L97.6667 97.3333L97.3333 96.6667z"/>
<path style="fill:#a6c04c; stroke:none;" d="M99 96L99 100L100 100L99 96z"/>
<path style="fill:#6161b5; stroke:none;" d="M108 96L109 97L108 96z"/>
<path style="fill:#7fa5b6; stroke:none;" d="M177 96L176 105L177 105L177 97L178 97L178 99L179 99L177 96z"/>
<path style="fill:#6161b5; stroke:none;" d="M188 96L188 100L189 100L188 96z"/>
<path style="fill:#7fa5b6; stroke:none;" d="M204.333 96.6667L204.667 97.3333L204.333 96.6667z"/>
<path style="fill:#eaf1f3; stroke:none;" d="M205 96L205 101L206 101L205 96z"/>
<path style="fill:#a6c04c; stroke:none;" d="M248 96L249 97L248 96z"/>
<path style="fill:#7fa5b6; stroke:none;" d="M216 132L224 130L221 150C225.634 149.987 232.775 150.334 236.062 146.348C240.672 140.757 238.339 135.853 246 132L245 144C258.4 145.1 253.721 130.737 258.938 123.228C261.262 119.882 267.875 119.352 266.338 113.995C264.924 109.067 252.684 94.9776 246.997 97.8472C240.207 101.273 233.393 109.675 228 115.004C223.403 119.546 215.341 124.98 216 132z"/>
<path style="fill:#a6c04c; stroke:none;" d="M250 96L251 97L250 96M81 97L82 98L81 97z"/>
<path style="fill:#6161b5; stroke:none;" d="M137 97L138 98L137 97z"/>
<path style="fill:#eaf1f3; stroke:none;" d="M177 97L176 109L172 109L170 98L169 98L168 116C176.231 112.816 180.618 105.622 177 97z"/>
<path style="fill:#7fa5b6; stroke:none;" d="M182 97L182 102L183 102L182 97M97 98L98 99L97 98M121 98L122 99L121 98M125 98L126 99L125 98z"/>
<path style="fill:#6161b5; stroke:none;" d="M140.333 98.6667L140.667 99.3333L140.333 98.6667M145.333 98.6667L145.667 99.3333L145.333 98.6667M152 98L152 102L153 102L152 98z"/>
<path style="fill:#a6c04c; stroke:none;" d="M187 98L188 99L187 98z"/>
<path style="fill:#6161b5; stroke:none;" d="M193 98L194 99L193 98z"/>
<path style="fill:#a6c04c; stroke:none;" d="M97 99L98 100L97 99z"/>
<path style="fill:#7fa5b6; stroke:none;" d="M107 99L108 100L107 99z"/>
<path style="fill:#6161b5; stroke:none;" d="M136.333 99.6667L136.667 100.333L136.333 99.6667z"/>
<path style="fill:#7fa5b6; stroke:none;" d="M187 99L187 101L189 101L187 99z"/>
<path style="fill:#a6c04c; stroke:none;" d="M253 99L254 100L253 99M282 99L283 100L282 99M12 100L13 101L12 100M59 100L60 101L59 100M107 100L108 101L107 100z"/>
<path style="fill:#7fa5b6; stroke:none;" d="M123 100L125 104L123 100M127 100L127 104L128 104L127 100M203 100L204 101L203 100z"/>
<path style="fill:#a6c04c; stroke:none;" d="M60 101L61 102L60 101z"/>
<path style="fill:#7fa5b6; stroke:none;" d="M98 101L99 102L98 101z"/>
<path style="fill:#eaf1f3; stroke:none;" d="M107 101L108 102L107 101z"/>
<path style="fill:#a6c04c; stroke:none;" d="M136 101L137 102L136 101M255 101L256 102L255 101M107.333 102.667L107.667 103.333L107.333 102.667z"/>
<path style="fill:#7fa5b6; stroke:none;" d="M152 102L153 103L152 102z"/>
<path style="fill:#a6c04c; stroke:none;" d="M196 102L197 103L196 102M241 102L242 103L241 102M31 103L32 104L31 103M62 103L63 104L62 103z"/>
<path style="fill:#7fa5b6; stroke:none;" d="M129.667 103.333L130.333 103.667L129.667 103.333z"/>
<path style="fill:#6161b5; stroke:none;" d="M191.333 103.667L191.667 104.333L191.333 103.667z"/>
<path style="fill:#eaf1f3; stroke:none;" d="M193.333 103.667L193.667 104.333L193.333 103.667M207 103L207 108L208 108L207 103z"/>
<path style="fill:#a6c04c; stroke:none;" d="M41 104L42 105L41 104M40 105L41 106L40 105z"/>
<path style="fill:#6161b5; stroke:none;" d="M109 105L110 106L109 105z"/>
<path style="fill:#7fa5b6; stroke:none;" d="M104 111C94.2845 112.525 74.7893 129.557 94 132C94.0094 146.121 94.8937 156.823 112 154C111.949 150.052 114.182 134.573 120.972 144.434C123.095 147.516 120.588 152.416 123.603 155.012C132.309 162.505 134 150.656 134 145L134 136L144 136C143.253 126.171 123.368 111.237 115 106.579C110.684 104.177 105.559 106.638 104 111M121.333 105.667L121.667 106.333L121.333 105.667z"/>
<path style="fill:#6161b5; stroke:none;" d="M153 105L154 106L153 105z"/>
<path style="fill:#7fa5b6; stroke:none;" d="M170 105L171 106L170 105z"/>
<path style="fill:#eaf1f3; stroke:none;" d="M192 105L192 111L193 111L192 105z"/>
<path style="fill:#a6c04c; stroke:none;" d="M259 105L260 106L259 105M39 106L40 107L39 106z"/>
<path style="fill:#7fa5b6; stroke:none;" d="M101 106L102 107L101 106z"/>
<path style="fill:#a6c04c; stroke:none;" d="M115 106L116 107L115 106z"/>
<path style="fill:#7fa5b6; stroke:none;" d="M124.333 106.667L124.667 107.333L124.333 106.667z"/>
<path style="fill:#a6c04c; stroke:none;" d="M186 106L187 107L186 106M237 106L238 107L237 106M277 106L278 107L277 106M38 107L39 108L38 107M101.333 107.667L101.667 108.333L101.333 107.667z"/>
<path style="fill:#6161b5; stroke:none;" d="M106 107L107 108L106 107z"/>
<path style="fill:#a6c04c; stroke:none;" d="M116 107L117 108L116 107z"/>
<path style="fill:#7fa5b6; stroke:none;" d="M168 107L168 110L169 110L168 107z"/>
<path style="fill:#a6c04c; stroke:none;" d="M236 107L237 108L236 107M18 108L18 110L20 108L18 108M117 108L118 109L117 108z"/>
<path style="fill:#7fa5b6; stroke:none;" d="M127 108L127 112L128 112L127 108z"/>
<path style="fill:#6161b5; stroke:none;" d="M146 108L147 109L146 108z"/>
<path style="fill:#7fa5b6; stroke:none;" d="M175 108L176 109L175 108z"/>
<path style="fill:#a6c04c; stroke:none;" d="M235 108L236 109L235 108M118 109L119 110L118 109z"/>
<path style="fill:#7fa5b6; stroke:none;" d="M162 109L163 110L162 109z"/>
<path style="fill:#6161b5; stroke:none;" d="M194.333 109.667L194.667 110.333L194.333 109.667z"/>
<path style="fill:#a6c04c; stroke:none;" d="M275 109L276 110L275 109M21 110L22 111L21 110M68 110L69 111L68 110z"/>
<path style="fill:#6161b5; stroke:none;" d="M103 110L104 111L103 110z"/>
<path style="fill:#7fa5b6; stroke:none;" d="M124 110L123 112L125 112L124 110z"/>
<path style="fill:#a6c04c; stroke:none;" d="M163 110L164 111L163 110M168.333 110.667L168.667 111.333L168.333 110.667z"/>
<path style="fill:#7fa5b6; stroke:none;" d="M19.3333 111.667L19.6667 112.333L19.3333 111.667z"/>
<path style="fill:#a6c04c; stroke:none;" d="M69 111L70 112L69 111z"/>
<path style="fill:#7fa5b6; stroke:none;" d="M163 111L164 112L163 111M207.333 111.667L207.667 112.333L207.333 111.667z"/>
<path style="fill:#a6c04c; stroke:none;" d="M70 112L71 113L70 112z"/>
<path style="fill:#7fa5b6; stroke:none;" d="M128.667 112.333L129.333 112.667L128.667 112.333z"/>
<path style="fill:#6161b5; stroke:none;" d="M143 112L144 113L143 112z"/>
<path style="fill:#a6c04c; stroke:none;" d="M163.333 112.667L163.667 113.333L163.333 112.667z"/>
<path style="fill:#7fa5b6; stroke:none;" d="M168 112L169 113L168 112z"/>
<path style="fill:#a6c04c; stroke:none;" d="M19 113L20 114L19 113M71 113L72 114L71 113M168.333 113.667L168.667 114.333L168.333 113.667z"/>
<path style="fill:#6161b5; stroke:none;" d="M204 113L205 114L204 113z"/>
<path style="fill:#a6c04c; stroke:none;" d="M124 114L125 115L124 114z"/>
<path style="fill:#7fa5b6; stroke:none;" d="M163.333 114.667L163.667 115.333L163.333 114.667z"/>
<path style="fill:#a6c04c; stroke:none;" d="M171 114L172 115L171 114M125 115L126 116L125 115z"/>
<path style="fill:#6161b5; stroke:none;" d="M142.667 115.333L143.333 115.667L142.667 115.333M148 115L149 116L148 115z"/>
<path style="fill:#a6c04c; stroke:none;" d="M197 115L198 116L197 115M38 116L39 117L38 116M126 116L127 117L126 116M141 116L142 117L141 116M163.333 116.667L163.667 117.333L163.333 116.667M168 116L169 117L168 116M27 117L28 118L27 117M94 117L95 118L94 117M274 117L275 118L274 117M24 118L25 119L24 118z"/>
<path style="fill:#6161b5; stroke:none;" d="M166 118L167 119L166 118z"/>
<path style="fill:#7fa5b6; stroke:none;" d="M157 119L158 120L157 119z"/>
<path style="fill:#6161b5; stroke:none;" d="M164.667 119.333L165.333 119.667L164.667 119.333z"/>
<path style="fill:#a6c04c; stroke:none;" d="M275 119L276 120L275 119z"/>
<path style="fill:#eaf1f3; stroke:none;" d="M275 130C279.745 127.463 281.519 124.303 282 119C276.723 120.892 275.279 124.636 275 130z"/>
<path style="fill:#a6c04c; stroke:none;" d="M284 119L285 120L284 119M33 120L34 121L33 120M77 120L78 121L77 120M261 120L262 121L261 120M89 121L90 122L89 121M132 121L133 122L132 121M283 121L284 122L283 121M290 121L291 122L290 121M22 122L23 123L22 122M79 122L80 123L79 122M133 122L134 123L133 122M161 122L162 123L161 122M276 122L277 123L276 122M23 123L24 124L23 123M274 123L275 124L274 123M25 124L26 125L25 124M29 124L30 125L29 124M85 124L86 125L85 124M44 125L45 126L44 125M48 125L49 126L48 125M81 125L82 126L81 125M209 125L210 126L209 125M282 125L283 126L282 125z"/>
<path style="fill:#eaf1f3; stroke:none;" d="M47 126C47.2785 131.352 48.6289 134.521 54 136C54.554 130.455 52.7177 126.893 47 126z"/>
<path style="fill:#a6c04c; stroke:none;" d="M273 127L274 128L273 127M285 127L286 128L285 127M76 128L77 129L76 128M140 128L141 129L140 128M215 128L216 129L215 128M30 129L31 130L30 129M80 129L81 130L80 129M281 129L282 130L281 129M222.667 130.333L223.333 130.667L222.667 130.333M256 130L257 131L256 130M217.667 131.333L218.333 131.667L217.667 131.333M35 132L36 133L35 132M54 132L55 133L54 132M63 132L64 133L63 132M245 132L246 133L245 132M48 133L49 134L48 133M64 133L65 134L64 133M74 133L75 134L74 133M144.333 133.667L144.667 134.333L144.333 133.667M202 133L203 134L202 133z"/>
<path style="fill:#eaf1f3; stroke:none;" d="M236 135C220.328 130.552 227.977 151.613 234.348 139.891C235.158 138.401 235.526 136.612 236 135z"/>
<path style="fill:#a6c04c; stroke:none;" d="M276 134L277 135L276 134M51 135L52 136L51 135M201 135L202 136L201 135M227 135L228 136L227 135M239 135L240 136L239 135M65 136L66 137L65 136M141 136L141 137L144 137L141 136M150 136L151 137L150 136M155 136L156 137L155 136M157 136L158 137L157 136M235 136L236 137L235 136M57 137L58 138L57 137z"/>
<path style="fill:#eaf1f3; stroke:none;" d="M99.3573 139.118C94.4197 142.107 100.766 149.749 105.562 147.392C111.004 144.718 104.307 136.122 99.3573 139.118z"/>
<path style="fill:#a6c04c; stroke:none;" d="M102.667 138.333L103.333 138.667L102.667 138.333M246 138L247 139L246 138M50 140L51 141L50 140M222 140L223 141L222 140M52 141L53 142L52 141M75.3333 141.667L75.6667 142.333L75.3333 141.667M94.3333 141.667L94.6667 142.333L94.3333 141.667M167.667 141.333L168.333 141.667L167.667 141.333M97.3333 142.667L97.6667 143.333L97.3333 142.667M107 142L108 143L107 142M159 142L159 147L160 147L159 142z"/>
<path style="fill:#eaf1f3; stroke:none;" d="M164.742 143.028C159.242 147.485 167.812 154.013 172.396 149.397C177.257 144.501 168.958 139.611 164.742 143.028z"/>
<path style="fill:#a6c04c; stroke:none;" d="M200 142L201 143L200 142M245 142L246 143L245 142M252 142L253 143L252 142M121 143L122 144L121 143M163 143L164 144L163 143M66 144L67 145L66 144M111.333 144.667L111.667 145.333L111.333 144.667M188.333 144.667L188.667 145.333L188.333 144.667M246 144L247 145L246 144M68 146L69 147L68 146M107 146L108 147L107 146M71 147L72 148L71 147M177.333 149.667L177.667 150.333L177.333 149.667M199.333 150.667L199.667 151.333L199.333 150.667M96 152L97 153L96 152M104.667 154.333L105.333 154.667L104.667 154.333M109 154L109 155L112 155L109 154M197 154L198 155L197 154M122 155L123 156L122 155M189 155L190 156L189 155M191 155L192 156L191 155M125 156L125 157L128 157L125 156M132 156L133 157L132 156z"/>
</svg>
