<?xml version="1.0" standalone="yes"?>
<svg xmlns="http://www.w3.org/2000/svg" width="473" height="463">
<path style="fill:#fdfefd; stroke:none;" d="M0 0L0 463L473 463L473 0L0 0z"/>
<path style="fill:#42c7d4; stroke:none;" d="M24.0548 18.7423C16.4183 21.8966 19 35.4619 19 42L19 112L19 347L19 408C19 414.976 16.8096 426.671 21.0895 432.656C25.4973 438.82 40.3289 436 47 436L121 436L355 436L423 436C431.249 436 444.244 438.465 451.906 435.258C459.631 432.025 457 418.637 457 412L457 342L457 106L457 45C457 38.5218 459.263 26.6206 455.258 21.1481C450.945 15.2556 436.481 18 430 18L355 18L121 18L53 18C44.7075 18 31.7724 15.5544 24.0548 18.7423z"/>
<path style="fill:#fdfefd; stroke:none;" d="M35 34L35 420L441 420L441 34L35 34z"/>
<path style="fill:#42c7d4; stroke:none;" d="M240 48L240 49L253 50L240 48M234 51L234 52L239 50L234 51z"/>
<path style="fill:#342b5e; stroke:none;" d="M152 214L153 214C161.612 176.434 184.694 134.729 222 119.604C248.422 108.892 291.834 113.409 298 148L299 148C305.323 126.609 298.392 81.7075 272 77C269.812 93.1545 256.197 101.817 241 97C250.643 94.1434 258.762 94.4376 264 84C272.279 67.5023 260.33 46.2585 241 49.213C229.17 51.0211 223.565 63.1841 224.039 74C224.206 77.8026 226.986 83.2859 224.473 86.6242C216.84 96.7647 202.928 104.067 194.289 114C171.641 140.041 152.725 178.865 152 214z"/>
<path style="fill:#42c7d4; stroke:none;" d="M254 50L255 51L254 50M255.667 51.3333L256.333 51.6667L255.667 51.3333M232 52L233 53L232 52M257 52L258 53L257 52M231 53L232 54L231 53M258 53L259 54L258 53M230 54L231 55L230 54M259 54L260 55L259 54M229 55L230 56L229 55M260 55L261 56L260 55M228 56L229 57L228 56M261 56L262 57L261 56M262 57L263 58L262 57M227 58L228 59L227 58M226.333 59.6667L226.667 60.3333L226.333 59.6667M263 59L264 60L263 59M225.333 61.6667L225.667 62.3333L225.333 61.6667M264 61L265 62L264 61M265 62L265 65L266 65L265 62M224.333 64.6667L224.667 65.3333L224.333 64.6667M266 65L266 69L267 69L266 65M223 67L223 78L224 78L223 67M266 75L266 80L267 80L266 75M272.667 76.3333L273.333 76.6667L272.667 76.3333M275 77L276 78L275 77M224 78L224 81L225 81L224 78M271 78L271 81L272 81L271 78M277.667 78.3333L278.333 78.6667L277.667 78.3333M279 79L280 80L279 79M265.333 80.6667L265.667 81.3333L265.333 80.6667M281 80L282 81L281 80M282 81L283 82L282 81M225 82L226 83L225 82M270 82L270 85L271 85L270 82M283 82L284 83L283 82M264 83L265 84L264 83M284 83L285 84L284 83M226.333 84.6667L226.667 85.3333L226.333 84.6667M285 84L286 85L285 84M263 85L264 86L263 85M269.333 85.6667L269.667 86.3333L269.333 85.6667M286 85L287 86L286 85M225 86L226 87L225 86M262.333 86.6667L262.667 87.3333L262.333 86.6667M287 86L288 87L287 86M223.667 87.3333L224.333 87.6667L223.667 87.3333M268 87L269 88L268 87M288 87L289 88L288 87M222 88L223 89L222 88M261 88L262 89L261 88M289 88L290 89L289 88M260 89L261 90L260 89M267 89L268 90L267 89M219 90L220 91L219 90M259 90L260 91L259 90M266 90L267 91L266 90M290 90L291 91L290 90M218 91L219 92L218 91M258 91L259 92L258 91M265 91L266 92L265 91M291 91L292 92L291 91M216 92L217 93L216 92M257 92L258 93L257 92M264 92L265 93L264 92M215 93L216 94L215 93M255.667 93.3333L256.333 93.6667L255.667 93.3333M263 93L264 94L263 93M292 93L293 94L292 93M214 94L215 95L214 94M253.667 94.3333L254.333 94.6667L253.667 94.3333M262 94L263 95L262 94M250.667 95.3333L251.333 95.6667L250.667 95.3333M261 95L262 96L261 95M293 95L294 96L293 95M211.667 96.3333L212.333 96.6667L211.667 96.3333M241 96L241 97L250 97L241 96M259 96L260 97L259 96M210 97L211 98L210 97M257.667 97.3333L258.333 97.6667L257.667 97.3333M294 97L295 98L294 97M209 98L210 99L209 98M245 98L245 99L248 99L245 98M252 98L252 99L256 99L252 98M208 99L209 100L208 99M207 100L208 101L207 100M295 100L296 101L295 100M206 101L207 102L206 101M205 102L206 103L205 102M296.333 102.667L296.667 103.333L296.333 102.667M204 103L205 104L204 103M202 105L203 106L202 105M297 105L297 108L298 108L297 105M201 106L202 107L201 106M200 107L201 108L200 107M199 108L200 109L199 108M198 109L199 110L198 109M298 109L298 112L299 112L298 109M197 110L198 111L197 110M196 111L197 112L196 111M195 112L196 113L195 112M194 113L195 114L194 113M193 114L194 115L193 114M238 114L238 115L246 115L238 114M254 114L254 115L261 115L254 114M234 115L234 116L238 116L234 115M261 115L261 116L265 116L261 115M299 115L299 120L300 120L299 115M192 116L193 117L192 116M230.667 116.333L231.333 116.667L230.667 116.333M266.667 116.333L267.333 116.667L266.667 116.333M191 117L192 118L191 117M227.667 117.333L228.333 117.667L227.667 117.333M269.667 117.333L270.333 117.667L269.667 117.333M190 118L191 119L190 118M224 118L224 119L227 119L224 118M271.667 118.333L272.333 118.667L271.667 118.333M189 119L190 120L189 119M222 119L223 120L222 119M274 119L275 120L274 119M188.333 120.667L188.667 121.333L188.333 120.667M219.667 120.333L220.333 120.667L219.667 120.333M276 120L277 121L276 120M217.667 121.333L218.333 121.667L217.667 121.333M277.667 121.333L278.333 121.667L277.667 121.333M187 122L188 123L187 122M215.667 122.333L216.333 122.667L215.667 122.333M186 123L187 124L186 123M213.667 123.333L214.333 123.667L213.667 123.333M281 123L282 124L281 123M300 123L300 143L301 143L300 123M212 124L213 125L212 124M282 124L283 125L282 124M185 125L186 126L185 125M210 125L211 126L210 125M184 126L185 127L184 126M208.667 126.333L209.333 126.667L208.667 126.333M285 126L286 127L285 126M183 127L184 128L183 127M207 127L208 128L207 127M286 127L287 128L286 127M287 128L288 129L287 128M182 129L183 130L182 129M204 129L205 130L204 129M288 129L289 130L288 129M181.333 130.667L181.667 131.333L181.333 130.667M203 130L204 131L203 130M289 130L290 131L289 130M180 132L181 133L180 132M200 132L201 133L200 132M290 132L291 133L290 132M179 133L180 134L179 133M199 133L200 134L199 133M291 133L292 134L291 133M198 134L199 135L198 134M178 135L179 136L178 135M195 137L198 135L195 137M292 135L293 136L292 135M177.333 136.667L177.667 137.333L177.333 136.667M293 136L294 137L293 136M194 137L195 138L194 137M176.333 138.667L176.667 139.333L176.333 138.667M193 138L194 139L193 138M294 138L295 139L294 138M192 139L193 140L192 139M175 140L176 141L175 140M191 140L192 141L191 140M295 140L296 141L295 140M190 141L191 142L190 141M174 142L175 143L174 142M189 142L190 143L189 142M296.333 142.667L296.667 143.333L296.333 142.667M188 143L189 144L188 143M173 144L174 145L173 144M187.333 144.667L187.667 145.333L187.333 144.667z"/>
<path style="fill:#f88713; stroke:none;" d="M237 144L237 145C255.367 152.915 273.395 159.29 289 172.439C323.78 201.744 357.081 283.657 297 307L297 308C320.727 309.019 360.136 309.6 363 277C347.79 274.287 342.938 260.569 344 247L345 247C345.621 251.885 346.305 256.736 348.955 260.996C350.992 264.27 353.684 267.16 357.039 269.095C388.178 287.052 403.248 225.554 369 224.041C363.896 223.815 359.691 225.194 355 227C336.816 184.801 283.994 144.97 237 144z"/>
<path style="fill:#42c7d4; stroke:none;" d="M297 144L297 147L298 147L297 144M172.333 145.667L172.667 146.333L172.333 145.667z"/>
<path style="fill:#f88713; stroke:none;" d="M131 146L131 147L152 147L131 146z"/>
<path style="fill:#42c7d4; stroke:none;" d="M186 146L187 147L186 146z"/>
<path style="fill:#f88713; stroke:none;" d="M117 149L117 150L128 148L117 149z"/>
<path style="fill:#c02511; stroke:none;" d="M91 178C109.431 181.186 111.55 197.938 109 213L108 213C108 207.873 108.325 202.849 106.367 198C104.923 194.426 102.776 191.054 99.8264 188.532C71.9882 164.731 47.2207 226.281 84 230.815C89.7548 231.524 94.5501 229.291 100 228C103.638 240.627 113.954 252.542 122.83 261.91C146.204 286.58 180.811 309.466 216 311L216 310C182 300.72 149.825 276.937 134.259 245C117.484 210.581 119.714 168.614 155 148C150.28 146.019 144.08 147 139 147C118.761 147 94.4536 154.959 91 178z"/>
<path style="fill:#f88713; stroke:none;" d="M154 148L154 149L158 148L154 148z"/>
<path style="fill:#42c7d4; stroke:none;" d="M171 147L172 148L171 147M185 147L186 148L185 147M299 147L298 151L299 147M184 148L185 149L184 148z"/>
<path style="fill:#f88713; stroke:none;" d="M152.667 149.333L153.333 149.667L152.667 149.333z"/>
<path style="fill:#42c7d4; stroke:none;" d="M170 149L171 150L170 149M183 149L184 150L183 149z"/>
<path style="fill:#f88713; stroke:none;" d="M111 151L111 152L116 151L111 151M150.667 150.333L151.333 150.667L150.667 150.333z"/>
<path style="fill:#42c7d4; stroke:none;" d="M182.333 150.667L182.667 151.333L182.333 150.667z"/>
<path style="fill:#f88713; stroke:none;" d="M148.667 151.333L149.333 151.667L148.667 151.333z"/>
<path style="fill:#42c7d4; stroke:none;" d="M169.333 151.667L169.667 152.333L169.333 151.667z"/>
<path style="fill:#f88713; stroke:none;" d="M110 152L111 153L110 152M146.667 152.333L147.333 152.667L146.667 152.333z"/>
<path style="fill:#42c7d4; stroke:none;" d="M181 152L182 153L181 152z"/>
<path style="fill:#f88713; stroke:none;" d="M106 155L109 153L106 155M145 153L146 154L145 153z"/>
<path style="fill:#42c7d4; stroke:none;" d="M168.333 153.667L168.667 154.333L168.333 153.667M180 153L181 154L180 153z"/>
<path style="fill:#f88713; stroke:none;" d="M143.667 154.333L144.333 154.667L143.667 154.333z"/>
<path style="fill:#42c7d4; stroke:none;" d="M179 154L180 155L179 154z"/>
<path style="fill:#f88713; stroke:none;" d="M105 155L106 156L105 155M142 155L143 156L142 155z"/>
<path style="fill:#42c7d4; stroke:none;" d="M167.333 155.667L167.667 156.333L167.333 155.667z"/>
<path style="fill:#f88713; stroke:none;" d="M103 156L104 157L103 156M141 156L142 157L141 156z"/>
<path style="fill:#42c7d4; stroke:none;" d="M178 156L179 157L178 156z"/>
<path style="fill:#f88713; stroke:none;" d="M102 157L103 158L102 157M140 157L141 158L140 157z"/>
<path style="fill:#42c7d4; stroke:none;" d="M177.333 157.667L177.667 158.333L177.333 157.667z"/>
<path style="fill:#f88713; stroke:none;" d="M101 158L102 159L101 158M139 158L140 159L139 158z"/>
<path style="fill:#42c7d4; stroke:none;" d="M166 158L167 159L166 158z"/>
<path style="fill:#f88713; stroke:none;" d="M100 159L101 160L100 159M138 159L139 160L138 159z"/>
<path style="fill:#42c7d4; stroke:none;" d="M176 159L177 160L176 159z"/>
<path style="fill:#f88713; stroke:none;" d="M99 160L100 161L99 160M137.333 160.667L137.667 161.333L137.333 160.667z"/>
<path style="fill:#42c7d4; stroke:none;" d="M165.333 160.667L165.667 161.333L165.333 160.667M175 160L176 161L175 160z"/>
<path style="fill:#f88713; stroke:none;" d="M98 161L99 162L98 161M97 162L98 163L97 162M136 162L137 163L136 162z"/>
<path style="fill:#42c7d4; stroke:none;" d="M164.333 162.667L164.667 163.333L164.333 162.667M174 162L175 163L174 162z"/>
<path style="fill:#f88713; stroke:none;" d="M96.3333 163.667L96.6667 164.333L96.3333 163.667M135 163L136 164L135 163z"/>
<path style="fill:#42c7d4; stroke:none;" d="M173.333 163.667L173.667 164.333L173.333 163.667z"/>
<path style="fill:#f88713; stroke:none;" d="M134.333 164.667L134.667 165.333L134.333 164.667M95 165L96 166L95 165z"/>
<path style="fill:#42c7d4; stroke:none;" d="M163 165L164 166L163 165M172.333 165.667L172.667 166.333L172.333 165.667M203 165C203 172.268 206.661 194.132 201.397 199.397C198.971 201.822 194.101 201 191 201C182.603 201.001 174.363 201.659 166 202L166 238L167.603 250.972L178 252L203 252L203 277L204.028 287.397L214 289L241 289L251.972 287.397L253 277L253 252L278 252C280.865 252 285.86 252.912 288.258 250.972C290.982 248.768 290 243.062 290 240L290 213C289.999 210.03 290.777 205.196 288.258 202.992C281.745 197.29 261.175 201 253 201L253 176L251.972 166.603L239 165L203 165z"/>
<path style="fill:#f88713; stroke:none;" d="M94.3333 166.667L94.6667 167.333L94.3333 166.667M133 166L134 167L133 166M132.333 167.667L132.667 168.333L132.333 167.667z"/>
<path style="fill:#42c7d4; stroke:none;" d="M162.333 167.667L162.667 168.333L162.333 167.667M171 167L172 168L171 167z"/>
<path style="fill:#f88713; stroke:none;" d="M93.3333 168.667L93.6667 169.333L93.3333 168.667M131.333 169.667L131.667 170.333L131.333 169.667z"/>
<path style="fill:#42c7d4; stroke:none;" d="M170 169L171 170L170 169z"/>
<path style="fill:#f88713; stroke:none;" d="M92.3333 170.667L92.6667 171.333L92.3333 170.667z"/>
<path style="fill:#42c7d4; stroke:none;" d="M161.333 170.667L161.667 171.333L161.333 170.667z"/>
<path style="fill:#f88713; stroke:none;" d="M130.333 171.667L130.667 172.333L130.333 171.667z"/>
<path style="fill:#42c7d4; stroke:none;" d="M169 171L170 172L169 171z"/>
<path style="fill:#f88713; stroke:none;" d="M91 172L91 175L92 175L91 172z"/>
<path style="fill:#42c7d4; stroke:none;" d="M160.333 172.667L160.667 173.333L160.333 172.667M168.333 172.667L168.667 173.333L168.333 172.667z"/>
<path style="fill:#f88713; stroke:none;" d="M129 173L129 176L130 176L129 173z"/>
<path style="fill:#42c7d4; stroke:none;" d="M167.333 174.667L167.667 175.333L167.333 174.667z"/>
<path style="fill:#f88713; stroke:none;" d="M90 175L90 178L91 178L90 175z"/>
<path style="fill:#42c7d4; stroke:none;" d="M159.333 175.667L159.667 176.333L159.333 175.667z"/>
<path style="fill:#f88713; stroke:none;" d="M128.333 176.667L128.667 177.333L128.333 176.667z"/>
<path style="fill:#42c7d4; stroke:none;" d="M166 177L167 178L166 177z"/>
<path style="fill:#f88713; stroke:none;" d="M91 178L91 179L95 179L91 178z"/>
<path style="fill:#42c7d4; stroke:none;" d="M165.333 178.667L165.667 179.333L165.333 178.667z"/>
<path style="fill:#f88713; stroke:none;" d="M95.6667 179.333L96.3333 179.667L95.6667 179.333M127.333 179.667L127.667 180.333L127.333 179.667z"/>
<path style="fill:#42c7d4; stroke:none;" d="M158.333 179.667L158.667 180.333L158.333 179.667z"/>
<path style="fill:#f88713; stroke:none;" d="M98 180L101 182L98 180z"/>
<path style="fill:#42c7d4; stroke:none;" d="M164.333 180.667L164.667 181.333L164.333 180.667z"/>
<path style="fill:#f88713; stroke:none;" d="M101 182L102 183L101 182M126 182L126 186L127 186L126 182z"/>
<path style="fill:#42c7d4; stroke:none;" d="M157 182L157 185L158 185L157 182z"/>
<path style="fill:#f88713; stroke:none;" d="M81 183L81 184L92 184L81 183M102 183L104 185L104 183L102 183z"/>
<path style="fill:#42c7d4; stroke:none;" d="M163 183L164 184L163 183z"/>
<path style="fill:#f88713; stroke:none;" d="M79.6667 184.333L80.3333 184.667L79.6667 184.333M92 184L92 185L95 185L92 184M77.6667 185.333L78.3333 185.667L77.6667 185.333M95.6667 185.333L96.3333 185.667L95.6667 185.333M104 185L105 186L104 185z"/>
<path style="fill:#42c7d4; stroke:none;" d="M156 185L156 188L157 188L156 185M162.333 185.667L162.667 186.333L162.333 185.667z"/>
<path style="fill:#f88713; stroke:none;" d="M75 186L76 187L75 186M97 186L98 187L97 186M105 186L106 187L105 186M125 186L125 192L126 192L125 186M74 187L75 188L74 187M98.6667 187.333L99.3333 187.667L98.6667 187.333M106.333 187.667L106.667 188.333L106.333 187.667z"/>
<path style="fill:#42c7d4; stroke:none;" d="M161 187L161 190L162 190L161 187z"/>
<path style="fill:#f88713; stroke:none;" d="M73 188L74 189L73 188M100 188L101 189L100 188M72 189L73 190L72 189M101 189L102 190L101 189M107 189L108 190L107 189M71 190L72 191L71 190M102 190L104 193L102 190z"/>
<path style="fill:#42c7d4; stroke:none;" d="M155.333 190.667L155.667 191.333L155.333 190.667M160.333 190.667L160.667 191.333L160.333 190.667z"/>
<path style="fill:#f88713; stroke:none;" d="M70 191L71 192L70 191M108 191L109 192L108 191M69 192L70 193L69 192M68.3333 193.667L68.6667 194.333L68.3333 193.667M104 193L105 194L104 193M109 193L109 196L110 196L109 193M124 193L124 213L125 213L124 193z"/>
<path style="fill:#42c7d4; stroke:none;" d="M159 193L160 194L159 193M154 194L154 197L155 197L154 194z"/>
<path style="fill:#f88713; stroke:none;" d="M67.3333 195.667L67.6667 196.333L67.3333 195.667M105 195L106 196L105 195M106 196L107 201L108 201L106 196M110 196L110 207L109 207L109 204L108 204L108 213L109 213L110 196z"/>
<path style="fill:#42c7d4; stroke:none;" d="M158 196L159 197L158 196z"/>
<path style="fill:#f88713; stroke:none;" d="M66.3333 197.667L66.6667 198.333L66.3333 197.667z"/>
<path style="fill:#42c7d4; stroke:none;" d="M153 198L153 202L154 202L153 198M157 198L157 201L158 201L157 198z"/>
<path style="fill:#f88713; stroke:none;" d="M65 200L65 203L66 203L65 200z"/>
<path style="fill:#42c7d4; stroke:none;" d="M156.333 201.667L156.667 202.333L156.333 201.667M152 203L152 208L153 208L152 203M155.333 204.667L155.667 205.333L155.333 204.667z"/>
<path style="fill:#f88713; stroke:none;" d="M64 205L64 209L65 209L64 205z"/>
<path style="fill:#42c7d4; stroke:none;" d="M154.333 208.667L154.667 209.333L154.333 208.667z"/>
<path style="fill:#f88713; stroke:none;" d="M65 211L65 215L66 215L65 211z"/>
<path style="fill:#42c7d4; stroke:none;" d="M151 211L152 217L153 217L154 211L153 211L153 214L152 214L151 211z"/>
<path style="fill:#f88713; stroke:none;" d="M125 214L126 224L127 224L125 214z"/>
<path style="fill:#342b5e; stroke:none;" d="M151 215L151 218L152 218L151 215z"/>
<path style="fill:#f88713; stroke:none;" d="M66.3333 216.667L66.6667 217.333L66.3333 216.667M67.3333 218.667L67.6667 219.333L67.3333 218.667z"/>
<path style="fill:#42c7d4; stroke:none;" d="M151 218L151 221L152 221L151 218z"/>
<path style="fill:#f88713; stroke:none;" d="M68.3333 220.667L68.6667 221.333L68.3333 220.667M69 222L70 223L69 222M70 223L71 224L70 223M71 224L72 225L71 224M72 225L73 226L72 225M127 225L127 228L128 228L127 225M73 226L74 227L73 226M74 227L75 228L74 227M75.6667 228.333L76.3333 228.667L75.6667 228.333M97 228L97 229L100 230L97 228M77 229L77 230L82 231L82 230L77 229M92 230L92 231L97 230L92 230M128.333 229.667L128.667 230.333L128.333 229.667M100.333 230.667L100.667 231.333L100.333 230.667M83 231L83 232L91 232L83 231M129 231L129 235L130 235L129 231M101.333 232.667L101.667 233.333L101.333 232.667M102.333 234.667L102.667 235.333L102.333 234.667z"/>
<path style="fill:#42c7d4; stroke:none;" d="M302 234L302 237L303 237L302 234z"/>
<path style="fill:#f88713; stroke:none;" d="M130.333 235.667L130.667 236.333L130.333 235.667M103 236L104 237L103 236M131.333 237.667L131.667 238.333L131.333 237.667M302 237L303 238L302 237M104 238L105 239L104 238z"/>
<path style="fill:#42c7d4; stroke:none;" d="M301.333 238.667L301.667 239.333L301.333 238.667z"/>
<path style="fill:#342b5e; stroke:none;" d="M302.333 238.667L302.667 239.333L302.333 238.667z"/>
<path style="fill:#f88713; stroke:none;" d="M105 239L106 240L105 239M106.333 240.667L106.667 241.333L106.333 240.667M132.333 240.667L132.667 241.333L132.333 240.667M301 240L300 244L301 244L301 241L302 241L302 244L303 244L303 240L301 240z"/>
<path style="fill:#342b5e; stroke:none;" d="M301 241C292.158 279.569 268.833 320.202 231 336.124C204.605 347.232 161.967 340.475 156 307L155 307C148.622 328.576 155.434 373.262 182 378C184.53 361.122 197.651 354.491 213 358L213 359C207.981 359.014 203.53 359.437 199.001 361.825C166.878 378.756 206.518 428.728 226.856 396C228.924 392.671 229.79 388.88 229.961 385C230.212 379.265 228.986 374.327 227 369C260.881 352.901 286.467 309.14 295.629 274C297.922 265.206 304.638 249.752 301 241z"/>
<path style="fill:#f88713; stroke:none;" d="M107 242L108 243L107 242M133.333 242.667L133.667 243.333L133.333 242.667M108 244L109 245L108 244M134.333 244.667L134.667 245.333L134.333 244.667M109 245L110 246L109 245M299.333 245.667L299.667 246.333L299.333 245.667M110.333 246.667L110.667 247.333L110.333 246.667M135 247L136 248L135 247M111 248L112 249L111 248M136.333 248.667L136.667 249.333L136.333 248.667M301 248L301 251L302 251L301 248M112 249L113 250L112 249M298.333 249.667L298.667 250.333L298.333 249.667M137.333 250.667L137.667 251.333L137.333 250.667M113 251L114 252L113 251M114 252L115 253L114 252M138 252L139 253L138 252M297.333 252.667L297.667 253.333L297.333 252.667M115 253L116 254L115 253M300 253L300 257L301 257L300 253M116.333 254.667L116.667 255.333L116.333 254.667M139 254L140 255L139 254M140.333 255.667L140.667 256.333L140.333 255.667M296.333 255.667L296.667 256.333L296.333 255.667M117 256L118 257L117 256M118 257L119 258L118 257M141 257L142 258L141 257M119 258L120 259L119 258M142 258L143 259L142 258M295 258L296 259L295 258M299 258L299 261L300 261L299 258M120 259L121 260L120 259M121 260L122 261L121 260M143 260L144 261L143 260M122 261L125 265L122 261M144 261L145 262L144 261M294.333 261.667L294.667 262.333L294.333 261.667M145.333 262.667L145.667 263.333L145.333 262.667M293.333 263.667L293.667 264.333L293.333 263.667M298.333 263.667L298.667 264.333L298.333 263.667M146 264L147 265L146 264M125 265L128 268L125 265M147 265L148 266L147 265M148 266L150 269L148 266M292.333 266.667L292.667 267.333L292.333 266.667M297 267L297 270L298 270L297 267M128 268L129 269L128 268M129 269L132 271L129 269M150 269L151 270L150 269M291 269L292 270L291 269M151 270L152 271L151 270M296 270L296 273L297 273L296 270M132 271L133 272L132 271M152 271L153 272L152 271M290 271L291 272L290 271M133 272L134 273L133 272M153 272L154 273L153 272M134 273L135 274L134 273M154 273L155 274L154 273M289.333 273.667L289.667 274.333L289.333 273.667M135 274L136 275L135 274M155 274L156 275L155 274M295.333 274.667L295.667 275.333L295.333 274.667M136 275L137 276L136 275M156 275L157 276L156 275M288.333 275.667L288.667 276.333L288.333 275.667M137 276L138 277L137 276M157 276L158 277L157 276M138 277L141 279L138 277M158 277L159 278L158 277M159 278L160 279L159 278M287 278L288 279L287 278M294.333 278.667L294.667 279.333L294.333 278.667M141 279L142 280L141 279M160 279L161 280L160 279M142 280L143 281L142 280M161 280L162 281L161 280M286 280L287 281L286 280M143.667 281.333L144.333 281.667L143.667 281.333M162 281L165 283L162 281M285.333 281.667L285.667 282.333L285.333 281.667M293.333 281.667L293.667 282.333L293.333 281.667M145 282L146 283L145 282M146 283L147 284L146 283M165 283L166 284L165 283M284.333 283.667L284.667 284.333L284.333 283.667M292.333 283.667L292.667 284.333L292.333 283.667M147.667 284.333L148.333 284.667L147.667 284.333M166 284L167 285L166 284M149 285L150 286L149 285M167.667 285.333L168.333 285.667L167.667 285.333M283 285L284 286L283 285M151 286L152 287L151 286M169 286L170 287L169 286M291.333 286.667L291.667 287.333L291.333 286.667M152 287L153 288L152 287M170 287L171 288L170 287M282 287L283 288L282 287M153.667 288.333L154.333 288.667L153.667 288.333M171.667 288.333L172.333 288.667L171.667 288.333M155 289L156 290L155 289M173 289L174 290L173 289M281 289L282 290L281 289M290.333 289.667L290.667 290.333L290.333 289.667M156.667 290.333L157.333 290.667L156.667 290.333M174 290L177 292L174 290M280.333 290.667L280.667 291.333L280.333 290.667M158.667 291.333L159.333 291.667L158.667 291.333M289.333 291.667L289.667 292.333L289.333 291.667M160 292L161 293L160 292M177 292L178 293L177 292M279 292L280 293L279 292M161.667 293.333L162.333 293.667L161.667 293.333M179 293L180 294L179 293M163.667 294.333L164.333 294.667L163.667 294.333M180.667 294.333L181.333 294.667L180.667 294.333M278 294L279 295L278 294M288 294L289 295L288 294M165.667 295.333L166.333 295.667L165.667 295.333M182 295L183 296L182 295M277 295L278 296L277 295M167.667 296.333L168.333 296.667L167.667 296.333M184 296L184 297L189 299L189 298L184 296M287 296L288 297L287 296M169.667 297.333L170.333 297.667L169.667 297.333M276 297L277 298L276 297M171.667 298.333L172.333 298.667L171.667 298.333M275 298L276 299L275 298M173.667 299.333L174.333 299.667L173.667 299.333M190 299L191 300L190 299M286 299L287 300L286 299M175 300L175 301L178 301L175 300M191.667 300.333L192.333 300.667L191.667 300.333M274 300L275 301L274 300M285.333 300.667L285.667 301.333L285.333 300.667M178.667 301.333L179.333 301.667L178.667 301.333M194 301L195 302L194 301M273 301L274 302L273 301M180 302L180 303L185 304L185 303L180 302M196.667 302.333L197.333 302.667L196.667 302.333M272 302L273 303L272 302M284.333 302.667L284.667 303.333L284.333 302.667M198.667 303.333L199.333 303.667L198.667 303.333M185 304L185 305L188 305L185 304M200.667 304.333L201.333 304.667L200.667 304.333M271 304L272 305L271 304z"/>
<path style="fill:#42c7d4; stroke:none;" d="M154 305L154 307L156 305L154 305z"/>
<path style="fill:#f88713; stroke:none;" d="M188 305L188 306L191 306L188 305M203.667 305.333L204.333 305.667L203.667 305.333M270 305L271 306L270 305M283 305L284 306L283 305M155 306L156 307L155 306M191 306L191 307L194 307L191 306M205 306L205 307L208 307L205 306M269 306L270 307L269 306M154 307L155 308L154 307M194 307L194 308L197 308L194 307M208.667 307.333L209.333 307.667L208.667 307.333M282 307L283 308L282 307M199 308L199 309L202 309L199 308M211 308L211 309L216 310L216 311L214 311L214 312L221 312L221 311L211 308M281.333 308.667L281.667 309.333L281.333 308.667M156.333 309.667L156.667 310.333L156.333 309.667M202 309L202 310L207 310L202 309M267 309L268 310L267 309M207 310L207 311L211 311L207 310M266 310L267 311L266 310M280.333 310.667L280.667 311.333L280.333 310.667M153 311L153 333L154 333L153 311M157.333 311.667L157.667 312.333L157.333 311.667M265 311L266 312L265 311M264 312L265 313L264 312M279 312L280 313L279 312M263 313L264 314L263 313M158 314L159 315L158 314M262 314L263 315L262 314M278 314L279 315L278 314M261 315L262 316L261 315M260 316L261 317L260 316M277 316L278 317L277 316M259 317L260 318L259 317M276 317L277 318L276 317M160 318L161 319L160 318M258 318L259 319L258 318M257 319L258 320L257 319M275 319L276 320L275 319M161 320L162 321L161 320M162 321L163 322L162 321M254 321L255 322L254 321M274 321L275 322L274 321M253 322L254 323L253 322M273 322L274 323L273 322M163 323L164 324L163 323M252 323L253 324L252 323M164 324L165 325L164 324M250.667 324.333L251.333 324.667L250.667 324.333M272 324L273 325L272 324M165 325L166 326L165 325M249 325L250 326L249 325M271 325L272 326L271 325M166 326L167 327L166 326M248 326L249 327L248 326M167 327L168 328L167 327M246.667 327.333L247.333 327.667L246.667 327.333M270 327L271 328L270 327M168 328L169 329L168 328M245 328L246 329L245 328M269 328L270 329L269 328M169 329L170 330L169 329M243 329L244 330L243 329M268.333 329.667L268.667 330.333L268.333 329.667M170 330L171 331L170 330M241.667 330.333L242.333 330.667L241.667 330.333M172 331L173 332L172 331M240 331L241 332L240 331M267 331L268 332L267 331M173 332L174 333L173 332M238 332L239 333L238 332M266 332L267 333L266 332M175 333L176 334L175 333M235.667 333.333L236.333 333.667L235.667 333.333M265.333 333.667L265.667 334.333L265.333 333.667M176 334L177 335L176 334M234 334L235 335L234 334M178.667 335.333L179.333 335.667L178.667 335.333M231.667 335.333L232.333 335.667L231.667 335.333M264 335L265 336L264 335M154 336L154 341L155 341L154 336M180.667 336.333L181.333 336.667L180.667 336.333M228 336L228 337L231 337L228 336M263 336L264 337L263 336M182.667 337.333L183.333 337.667L182.667 337.333M226.667 337.333L227.333 337.667L226.667 337.333M262 337L263 338L262 337M186 338L187 339L186 338M222.667 338.333L223.333 338.667L222.667 338.333M261.333 338.667L261.667 339.333L261.333 338.667M188 339L188 340L192 340L188 339M218 339L218 340L221 340L218 339M192 340L192 341L196 341L192 340M213 340L213 341L217 341L213 340M260 340L261 341L260 340M203.667 341.333L204.333 341.667L203.667 341.333M259 341L260 342L259 341M258 342L259 343L258 342M155 343L155 346L156 346L155 343M257 343L258 344L257 343M256 344L257 345L256 344M255 345L256 346L255 345M156 348L156 351L157 351L156 348M253 348L254 349L253 348M252 349L253 350L252 349M157.333 351.667L157.667 352.333L157.333 351.667M250 351L251 352L250 351M158.333 354.667L158.667 355.333L158.333 354.667M246 354L247 355L246 354M245 355L246 356L245 355M199 356L199 357L208 357L199 356M244 356L245 357L244 356M159 357L160 358L159 357M196.667 357.333L197.333 357.667L196.667 357.333M209 357L209 358L213 359L213 358L209 357M243 357L244 358L243 357M194.667 358.333L195.333 358.667L194.667 358.333M242 358L243 359L242 358M160.333 359.667L160.667 360.333L160.333 359.667M192 359L193 360L192 359M203.667 359.333L204.333 359.667L203.667 359.333z"/>
<path style="fill:#c02511; stroke:none;" d="M213 359L214 360L213 359z"/>
<path style="fill:#f88713; stroke:none;" d="M241 359L242 360L241 359M191 360L192 361L191 360M200.667 360.333L201.333 360.667L200.667 360.333M239 360L240 361L239 360M161 361L162 362L161 361M190 361L191 362L190 361M198.667 361.333L199.333 361.667L198.667 361.333M238 361L239 362L238 361M189 362L190 363L189 362M197 362L198 363L197 362M237 362L238 363L237 362M162 363L163 364L162 363M188 363L189 364L188 363M195 363L196 364L195 363M235.667 363.333L236.333 363.667L235.667 363.333M187 364L188 365L187 364M194 364L195 365L194 364M234 364L235 365L234 364M163 365L164 366L163 365M186 365L187 366L186 365M193 365L194 366L193 365M233 365L234 366L233 365M164 366L165 367L164 366M192 366L193 367L192 366M231 366L232 367L231 366M165 367L166 368L165 367M185 367L186 368L185 367M230 367L231 368L230 367M191 368L192 369L191 368M228 368L229 369L228 368M184 369L185 370L184 369M190 369L191 370L190 369M227.333 369.667L227.667 370.333L227.333 369.667M167 370L168 371L167 370M168 371L169 372L168 371M183.333 371.667L183.667 372.333L183.333 371.667M189 371L190 372L189 371M169.667 372.333L170.333 372.667L169.667 372.333M228 372L229 373L228 372M171 373L172 374L171 373M188.333 373.667L188.667 374.333L188.333 373.667M172 374L173 375L172 374M182 374L182 377L183 377L182 374M173.667 375.333L174.333 375.667L173.667 375.333M229.333 375.667L229.667 376.333L229.333 375.667M175.667 376.333L176.333 376.667L175.667 376.333M187 376L187 379L188 379L187 376M177.667 377.333L178.333 377.667L177.667 377.333M180.667 378.333L181.333 378.667L180.667 378.333M230 379L230 388L231 388L230 379M187 387L187 390L188 390L187 387M229.333 389.667L229.667 390.333L229.333 389.667M188.333 391.667L188.667 392.333L188.333 391.667M189.333 393.667L189.667 394.333L189.333 393.667M228 393L229 394L228 393M227 395L228 396L227 395M226.333 396.667L226.667 397.333L226.333 396.667M191 397L192 398L191 397M225 398L226 399L225 398M224 399L225 400L224 399M193 400L194 401L193 400M223 400L224 401L223 400M194 401L195 402L194 401M222 401L223 402L222 401M196 402L197 403L196 402M221 402L222 403L221 402M197 403L198 404L197 403M220 403L221 404L220 403M198 404L199 405L198 404M218 404L219 405L218 404M200.667 405.333L201.333 405.667L200.667 405.333M215.667 405.333L216.333 405.667L215.667 405.333M203 406L203 407L206 407L203 406M211 406L211 407L215 407L211 406z"/>
</svg>
